<?xml version="1.0" encoding="utf-8"?>
<!-- Uploaded to: SVG Repo, www.svgrepo.com, Generator: SVG Repo Mixer Tools -->
<svg fill="#000000" height="800px" width="800px" version="1.2" baseProfile="tiny" id="Layer_1" xmlns="http://www.w3.org/2000/svg" xmlns:xlink="http://www.w3.org/1999/xlink"
	  viewBox="-552 348 256 256" xml:space="preserve">
<path d="M-406,564.6h46.8l62.2-64h-14.6c0.7-2.2,1.1-4.4,1.1-6.8c0-8.4-4.4-15.9-11.6-20c0.2-1,0.2-2,0.2-3
	c0-12.7-10.4-23.1-23.1-23.1c-7.3,0-14.1,3.5-18.4,9.2c-2.4-2.2-5.3-4-8.5-5c-0.7-12.1-10.8-21.7-23-21.7c-7.8,0-14.9,3.9-19.1,10.2
	c-3-1.4-6.2-2.1-9.5-2.1c-12.7,0-23.1,10.4-23.1,23.1c0,4.1,1.1,8.1,3.1,11.6c-6.9,4.1-11.4,11.6-11.4,19.8c0,2.7,0.6,5.3,1.4,7.7
	h-14.9L-406,564.6z M-446.5,492.9c0-6.6,4.3-12.3,10.7-14.2l6.6-1.9l-4.8-4.9c-2.7-2.8-4.2-6.5-4.2-10.4c0-8.2,6.7-14.9,14.9-14.9
	c3.1,0,6.1,1,8.7,2.8l4.2,3.1l2-4.8c2.3-5.6,7.7-9.2,13.7-9.2c8.2,0,14.9,6.7,14.9,14.9c0,0.2,0,0.4-0.1,0.6l-0.5,4.7l3.9,0.6
	c4.4,0.7,8.2,3.3,10.5,7.1l4.4,7.5l3-8.1c2.1-5.8,7.7-9.7,13.9-9.7c8.2,0,14.9,6.7,14.9,14.9c0,1.2-0.2,2.5-0.7,4.1l-1.1,3.6
	l3.5,1.4c5.8,2.2,9.5,7.7,9.5,13.8c0,2.5-0.7,4.8-1.7,6.8h-123.9C-445.6,498.4-446.5,495.8-446.5,492.9z M-358,387.5
	c1.6-2.1,2.7-3.6,2.7-7c0-3.4-1.2-4.8-2.7-7l-0.4-0.4c-1.1-1.4-0.8-3.4,0.6-4.4c1.4-1.1,3.4-0.8,4.4,0.6l0.4,0.4
	c1.8,2.3,4,5.3,4,10.7c0,5.5-2.2,8.4-4,10.7c-1.6,2.1-2.7,3.6-2.7,7c0,3.4,1.2,4.8,2.7,7c0.6,0.8,1.2,1.5,1.8,2.5
	c0.9,1.5,0.4,3.4-1.1,4.4c-0.6,0.4-1.1,0.5-1.7,0.5c-1.1,0-2-0.5-2.7-1.5c-0.4-0.6-0.9-1.3-1.4-2c-1.8-2.3-4-5.3-4-10.7
	C-362,392.8-359.8,389.9-358,387.5z M-389.8,376.9c2.4-3.2,4.5-5.9,4.5-11.6c0-5.7-2.1-8.4-4.5-11.6l-0.5-0.7
	c-1.1-1.4-0.8-3.4,0.6-4.4c1.4-1.1,3.4-0.8,4.4,0.6l0.5,0.6c2.7,3.6,5.8,7.7,5.8,15.4c0,7.9-3.1,11.9-5.8,15.4
	c-2.4,3.2-4.5,5.9-4.5,11.6s2.1,8.4,4.5,11.6c0.8,1.1,1.8,2.3,2.6,3.7c0.9,1.5,0.4,3.4-1.1,4.4c-0.6,0.4-1.1,0.5-1.7,0.5
	c-1.1,0-2-0.5-2.7-1.5c-0.7-1.1-1.4-2.1-2.2-3.2c-2.7-3.6-5.8-7.6-5.8-15.4C-395.6,384.6-392.6,380.5-389.8,376.9z M-421.7,387.5
	c1.6-2.1,2.7-3.6,2.7-7c0-3.4-1.2-4.8-2.7-7l-0.4-0.4c-1.1-1.4-0.8-3.4,0.6-4.4c1.4-1.1,3.4-0.8,4.4,0.6l0.4,0.4
	c1.8,2.3,4,5.3,4,10.7c0,5.5-2.2,8.4-4,10.7c-1.6,2.1-2.7,3.6-2.7,7c0,3.4,1.2,4.8,2.7,7c0.6,0.8,1.2,1.5,1.8,2.5
	c0.9,1.5,0.4,3.4-1.1,4.4c-0.6,0.4-1.1,0.5-1.7,0.5c-1.1,0-2-0.5-2.7-1.5c-0.4-0.6-0.9-1.3-1.4-2c-1.8-2.3-4-5.3-4-10.7
	C-425.7,392.8-423.4,389.9-421.7,387.5z M-354.4,591c0,6.8-5.6,12.1-12.1,12.1h-82.7c-9.9,0.2-20.6-3.5-28.2-11.1l-31.1-31.1
	c-3.9-3.9-9-5.8-14.2-6h-29.3v-48.1h53.3c9.7,0,19.3,3.7,26.7,11.1l44.6,44.8c4.7,4.7,4.7,12.3,0,17.1c-4.7,4.7-12.3,4.7-17.1,0
	l-36-36c-1.4-1.6-3.9-1.6-5.6,0c-1.6,1.6-1.6,4.1,0,5.8l35.8,35.4c3.7,3.9,8.8,6,14.2,6c5.3,0,10.5-2.3,14.2-6
	c1.9-1.6,3.3-3.9,4.3-6.2h50.8C-359.7,578.9-354.4,584.3-354.4,591z"/>
</svg>